PathFileType	4	(X/Y/Z)	/Users/itak/Documents/Research/Walk-IL/dataset/trc/00569_00009.trc
DataRate	CameraRate	NumFrames	NumMarkers	Units	OrigDataRate	OrigDataStartFrame	OrigNumFrames
100.000000	100.000000	4	53	mm	100.000000	490	561
Frame#	Time	RPSI			LPSI			L3			STRN			T10			C7			CLAV			RBAK			LBAK			LSHO			LUPA			LAEL			LAOL			LWTS			LWPS			LFRA			LIFD			LHPS			LHTS			RSHO			RUPA			RAEL			RAOL			RWTS			RWPS			RFRA			RIFD			RHTS			RHPS			RBHD			LFHD			RFHD			LBHD			LHIP			RHIP			RASI			LASI			LKNE			LTHI			LANK			LTIP			LTOE			LMT1			LMT5			LHEE			RKNE			RTHI			RANK			RTIP			RTOE			RMT1			RMT5			RHEE			
		X1	Y1	Z1	X2	Y2	Z2	X3	Y3	Z3	X4	Y4	Z4	X5	Y5	Z5	X6	Y6	Z6	X7	Y7	Z7	X8	Y8	Z8	X9	Y9	Z9	X10	Y10	Z10	X11	Y11	Z11	X12	Y12	Z12	X13	Y13	Z13	X14	Y14	Z14	X15	Y15	Z15	X16	Y16	Z16	X17	Y17	Z17	X18	Y18	Z18	X19	Y19	Z19	X20	Y20	Z20	X21	Y21	Z21	X22	Y22	Z22	X23	Y23	Z23	X24	Y24	Z24	X25	Y25	Z25	X26	Y26	Z26	X27	Y27	Z27	X28	Y28	Z28	X29	Y29	Z29	X30	Y30	Z30	X31	Y31	Z31	X32	Y32	Z32	X33	Y33	Z33	X34	Y34	Z34	X35	Y35	Z35	X36	Y36	Z36	X37	Y37	Z37	X38	Y38	Z38	X39	Y39	Z39	X40	Y40	Z40	X41	Y41	Z41	X42	Y42	Z42	X43	Y43	Z43	X44	Y44	Z44	X45	Y45	Z45	X46	Y46	Z46	X47	Y47	Z47	X48	Y48	Z48	X49	Y49	Z49	X50	Y50	Z50	X51	Y51	Z51	X52	Y52	Z52	X53	Y53	Z53	

491	4.9	367.1527099609375	1016.595275878906	1000.111694335938	501.5819396972656	1022.176940917969	997.141357421875	436.8076477050781	1113.68408203125	1004.1640625	454.9759521484375	1303.323974609375	1232.52392578125	435.9742736816406	1239.120483398438	991.8986206054688	422.7677917480469	1514.139892578125	1039.624877929688	452.2812805175781	1414.74951171875	1213.297729492188	331.913330078125	1386.576171875	977.7566528320312	511.2604675292969	1462.487548828125	995.8931274414062	604.9281005859375	1486.986083984375	1084.335815429688	679.9324340820312	1359.297119140625	1059.592407226562	703.3016967773438	1138.06005859375	1061.10009765625	634.769775390625	1135.670776367188	987.3170776367188	675.5991821289062	885.541748046875	1134.638916015625	736.947265625	870.0484008789062	1074.395385742188	714.6871337890625	1050.083984375	1073.859375	671.3329467773438	718.0759887695312	1101.003173828125	729.6182250976562	809.2945556640625	1074.65771484375	696.9785766601562	803.0549926757812	1133.455322265625	274.1269226074219	1474.242553710938	1112.598510742188	203.3089141845703	1409.975708007812	1101.271240234375	157.3452453613281	1120.325439453125	1102.993896484375	182.2463226318359	1102.478271484375	1046.789672851562	195.6148376464844	900.5607299804688	1237.309204101562	126.6047515869141	880.7710571289062	1193.596313476562	147.8374176025391	1065.276000976562	1113.42919921875	190.8763275146484	727.5263671875	1246.509765625	178.9788208007812	809.567138671875	1266.296875	130.0592956542969	806.9878540039062	1211.123901367188	359.3914794921875	1694.77490234375	1143.592651367188	519.1549682617188	1705.90869140625	1276.26318359375	375.4999389648438	1702.85302734375	1282.781616210938	525.7819213867188	1696.390625	1142.8291015625	634.5698852539062	945.828369140625	1121.630981445312	248.9304656982422	945.2827758789062	1127.103393554688	309.7657470703125	978.9465942382812	1211.655639648438	586.012939453125	972.6345825195312	1202.900146484375	578.27001953125	501.5135803222656	1162.008056640625	613.3244018554688	666.6064453125	1157.292114257812	577.8974609375	36.91412353515625	1044.081787109375	584.2450561523438	257.7740173339844	1082.96337890625	516.6570434570312	45.86156845092773	1255.190551757812	482.0816955566406	49.27946853637695	1181.552368164062	591.435302734375	39.4482307434082	1166.519775390625	523.4285888671875	40.09235763549805	975.0350952148438	304.689453125	502.8513793945312	1159.6552734375	253.7735137939453	792.902587890625	1173.82470703125	323.468505859375	44.42560195922852	1050.337890625	319.50634765625	359.5113525390625	1151.769775390625	366.2088012695312	44.48029327392578	1271.031982421875	408.0637817382812	40.83668518066406	1204.1513671875	306.89990234375	46.69266510009766	1182.703002929688	374.3945007324219	33.27699279785156	994.0714111328125	
492	4.91	367.0195617675781	1016.514770507812	1000.50537109375	501.4160766601562	1022.1259765625	997.4421997070312	436.6438598632812	1113.633666992188	1004.52734375	454.8271789550781	1303.265380859375	1232.882202148438	435.7272338867188	1239.058349609375	992.334228515625	422.5385131835938	1514.083984375	1040.0224609375	452.0989685058594	1414.699951171875	1213.679443359375	331.67236328125	1386.539794921875	978.1232299804688	511.017578125	1462.470092773438	996.2774658203125	604.6890869140625	1486.973876953125	1084.696655273438	679.7352905273438	1359.28564453125	1059.917236328125	703.174072265625	1138.071166992188	1061.52587890625	634.6535034179688	1135.62890625	987.7208862304688	675.605712890625	885.5610961914062	1135.118286132812	736.9906616210938	870.092041015625	1074.854125976562	714.5847778320312	1050.1201171875	1074.329223632812	671.5187377929688	718.0714111328125	1101.6123046875	729.6971435546875	809.3297119140625	1075.184326171875	697.1389770507812	803.015380859375	1134.003784179688	273.8741760253906	1474.141235351562	1113.0087890625	203.1022033691406	1409.783203125	1101.681884765625	157.4030456542969	1120.146118164062	1103.1533203125	182.2684173583984	1102.383056640625	1046.917602539062	195.8916320800781	900.1990356445312	1237.150268554688	126.857551574707	880.4047241210938	1193.435424804688	147.9632873535156	1065.078735351562	1113.519897460938	191.2777252197266	727.1214599609375	1246.055908203125	179.3747863769531	809.1155395507812	1265.954223632812	130.3327026367188	806.5936889648438	1210.866821289062	359.0511779785156	1694.650268554688	1144.017456054688	518.9420776367188	1705.923950195312	1276.490600585938	375.341064453125	1702.83203125	1283.184204101562	525.4899291992188	1696.338256835938	1143.088134765625	634.36572265625	945.76025390625	1121.977661132812	248.9748992919922	945.159423828125	1127.546142578125	309.581787109375	978.9048461914062	1212.077880859375	585.9359741210938	972.5980224609375	1203.339599609375	578.1297607421875	501.4502563476562	1162.384887695312	613.1837768554688	666.5842895507812	1157.683715820312	577.8973388671875	36.90200805664062	1044.0712890625	584.2570190429688	257.7575073242188	1083.067016601562	516.652099609375	45.86334991455078	1255.1826171875	482.0800476074219	49.28450393676758	1181.548706054688	591.4356689453125	39.44232559204102	1166.508911132812	523.4197387695312	40.07361602783203	975.0183715820312	304.6603698730469	502.8186950683594	1159.711303710938	253.6075286865234	792.849853515625	1174.104614257812	323.4951171875	44.42164993286133	1050.318481445312	319.5089721679688	359.48974609375	1151.777954101562	366.2342529296875	44.49139404296875	1271.012817382812	408.1085205078125	40.80022048950195	1204.149291992188	306.9168090820312	46.71471405029297	1182.697265625	374.3917541503906	33.25485610961914	994.0656127929688	
493	4.92	366.8949279785156	1016.446166992188	1000.877807617188	501.2372436523438	1022.083557128906	997.740966796875	436.4833679199219	1113.58984375	1004.8818359375	454.6865539550781	1303.225708007812	1233.225463867188	435.4845275878906	1238.99267578125	992.7512817382812	422.3160095214844	1514.0283203125	1040.389404296875	451.9279174804688	1414.663330078125	1214.034790039062	331.4255676269531	1386.507202148438	978.4832153320312	510.7851257324219	1462.444213867188	996.6298828125	604.4537353515625	1486.965209960938	1085.018432617188	679.5570678710938	1359.282104492188	1060.227905273438	703.0935668945312	1138.086547851562	1062.04052734375	634.6002197265625	1135.55517578125	988.2045288085938	675.654296875	885.6376953125	1135.846435546875	737.0983276367188	870.1603393554688	1075.572875976562	714.53759765625	1050.174560546875	1074.940307617188	671.7654418945312	718.0942993164062	1102.585205078125	729.8370971679688	809.3834228515625	1076.020629882812	697.3381958007812	803.0460815429688	1134.849365234375	273.6367492675781	1474.04736328125	1113.407348632812	202.9152221679688	1409.594360351562	1102.090576171875	157.5101318359375	1119.960815429688	1103.31201171875	182.3337249755859	1102.284912109375	1047.036987304688	196.2631072998047	899.8331298828125	1236.979858398438	127.2105712890625	880.032470703125	1193.280395507812	148.1360015869141	1064.87060546875	1113.6259765625	191.8088073730469	726.7217407226562	1245.599975585938	179.8901672363281	808.6697998046875	1265.60595703125	130.6938171386719	806.1890258789062	1210.621704101562	358.7357177734375	1694.526245117188	1144.4208984375	518.7589721679688	1705.951049804688	1276.694091796875	375.1863708496094	1702.81591796875	1283.552001953125	525.218017578125	1696.302124023438	1143.321533203125	634.1867065429688	945.7047119140625	1122.301391601562	249.0181427001953	945.0847778320312	1127.968627929688	309.4186096191406	978.8588256835938	1212.493896484375	585.8741455078125	972.56103515625	1203.733764648438	578.0076293945312	501.3938903808594	1162.744140625	613.0523681640625	666.5684814453125	1158.06982421875	577.89794921875	36.89027404785156	1044.0625	584.2772827148438	257.7485961914062	1083.159790039062	516.6476440429688	45.86454772949219	1255.17626953125	482.0813598632812	49.28980255126953	1181.545654296875	591.4376220703125	39.4356689453125	1166.499389648438	523.4130859375	40.05967330932617	975.0030517578125	304.6300659179688	502.7897033691406	1159.766723632812	253.4623870849609	792.7927856445312	1174.378295898438	323.5219421386719	44.41881561279297	1050.29833984375	319.5120239257812	359.4701843261719	1151.785888671875	366.2592163085938	44.50166702270508	1270.994018554688	408.1505737304688	40.76642608642578	1204.145874023438	306.932861328125	46.73523330688477	1182.691284179688	374.3913269042969	33.23618698120117	994.0595092773438	
494	4.93	366.7789611816406	1016.389282226562	1001.229370117188	501.0472412109375	1022.04736328125	998.044921875	436.3241882324219	1113.551513671875	1005.233947753906	454.5503234863281	1303.201904296875	1233.558349609375	435.2497253417969	1238.923217773438	993.1473388671875	422.0993957519531	1513.973022460938	1040.727661132812	451.767822265625	1414.638305664062	1214.36474609375	331.1724243164062	1386.47509765625	978.841064453125	510.5606689453125	1462.40771484375	996.952880859375	604.2211303710938	1486.957885742188	1085.30078125	679.39990234375	1359.286254882812	1060.523071289062	703.0610961914062	1138.106567382812	1062.639770507812	634.6057739257812	1135.448486328125	988.7697143554688	675.745849609375	885.7737426757812	1136.8251953125	737.2625122070312	870.25146484375	1076.55029296875	714.5457153320312	1050.244506835938	1075.68701171875	672.0634155273438	718.1485595703125	1103.918701171875	730.0322265625	809.4553833007812	1077.161987304688	697.5717163085938	803.1439208984375	1135.989135742188	273.4186096191406	1473.959838867188	1113.794067382812	202.7466278076172	1409.412475585938	1102.4970703125	157.6591339111328	1119.768310546875	1103.472412109375	182.4345855712891	1102.183349609375	1047.1513671875	196.7217712402344	899.4617919921875	1236.80078125	127.6559982299805	879.6580810546875	1193.137451171875	148.3450927734375	1064.652709960938	1113.750244140625	192.4643859863281	726.3307495117188	1245.148803710938	180.5140991210938	808.2324829101562	1265.26171875	131.1412506103516	805.77734375	1210.392700195312	358.4491882324219	1694.401977539062	1144.800170898438	518.6077270507812	1705.991455078125	1276.876098632812	375.0359191894531	1702.80615234375	1283.886962890625	524.9635009765625	1696.281005859375	1143.530395507812	634.029052734375	945.656982421875	1122.602294921875	249.038330078125	945.0697631835938	1128.3701171875	309.2789611816406	978.8084716796875	1212.903076171875	585.8212890625	972.5206909179688	1204.082153320312	577.9086303710938	501.3440856933594	1163.077758789062	612.9335327148438	666.5569458007812	1158.442504882812	577.89892578125	36.87921142578125	1044.055419921875	584.303955078125	257.7456970214844	1083.243774414062	516.6436767578125	45.86530685424805	1255.171142578125	482.0851440429688	49.29503631591797	1181.542724609375	591.4413452148438	39.42856979370117	1166.491088867188	523.4080810546875	40.04985427856445	974.9893798828125	304.5976867675781	502.7627258300781	1159.823120117188	253.3407440185547	792.7313842773438	1174.64501953125	323.5482177734375	44.41672515869141	1050.277954101562	319.5144348144531	359.4524230957031	1151.795166015625	366.2835083007812	44.51086044311523	1270.9755859375	408.1894226074219	40.73588943481445	1204.140869140625	306.94873046875	46.75455474853516	1182.68505859375	374.3930969238281	33.22047805786133	994.0529174804688	
